<svg width="22" height="17" viewBox="0 0 22 17" fill="none" xmlns="http://www.w3.org/2000/svg">
<path d="M0 1.41667C0 1.04094 0.144866 0.680609 0.402728 0.414932C0.660591 0.149256 1.01033 0 1.375 0H2.75C3.11467 0 3.46441 0.149256 3.72227 0.414932C3.98013 0.680609 4.125 1.04094 4.125 1.41667C4.125 1.79239 3.98013 2.15272 3.72227 2.4184C3.46441 2.68408 3.11467 2.83333 2.75 2.83333H1.375C1.01033 2.83333 0.660591 2.68408 0.402728 2.4184C0.144866 2.15272 0 1.79239 0 1.41667ZM6.875 1.41667C6.875 1.04094 7.01987 0.680609 7.27773 0.414932C7.53559 0.149256 7.88533 0 8.25 0H20.625C20.9897 0 21.3394 0.149256 21.5973 0.414932C21.8551 0.680609 22 1.04094 22 1.41667C22 1.79239 21.8551 2.15272 21.5973 2.4184C21.3394 2.68408 20.9897 2.83333 20.625 2.83333H8.25C7.88533 2.83333 7.53559 2.68408 7.27773 2.4184C7.01987 2.15272 6.875 1.79239 6.875 1.41667ZM0 8.5C0 8.12428 0.144866 7.76394 0.402728 7.49827C0.660591 7.23259 1.01033 7.08333 1.375 7.08333H2.75C3.11467 7.08333 3.46441 7.23259 3.72227 7.49827C3.98013 7.76394 4.125 8.12428 4.125 8.5C4.125 8.87572 3.98013 9.23606 3.72227 9.50173C3.46441 9.76741 3.11467 9.91667 2.75 9.91667H1.375C1.01033 9.91667 0.660591 9.76741 0.402728 9.50173C0.144866 9.23606 0 8.87572 0 8.5ZM6.875 8.5C6.875 8.12428 7.01987 7.76394 7.27773 7.49827C7.53559 7.23259 7.88533 7.08333 8.25 7.08333H20.625C20.9897 7.08333 21.3394 7.23259 21.5973 7.49827C21.8551 7.76394 22 8.12428 22 8.5C22 8.87572 21.8551 9.23606 21.5973 9.50173C21.3394 9.76741 20.9897 9.91667 20.625 9.91667H8.25C7.88533 9.91667 7.53559 9.76741 7.27773 9.50173C7.01987 9.23606 6.875 8.87572 6.875 8.5ZM0 15.5833C0 15.2076 0.144866 14.8473 0.402728 14.5816C0.660591 14.3159 1.01033 14.1667 1.375 14.1667H2.75C3.11467 14.1667 3.46441 14.3159 3.72227 14.5816C3.98013 14.8473 4.125 15.2076 4.125 15.5833C4.125 15.9591 3.98013 16.3194 3.72227 16.5851C3.46441 16.8507 3.11467 17 2.75 17H1.375C1.01033 17 0.660591 16.8507 0.402728 16.5851C0.144866 16.3194 0 15.9591 0 15.5833ZM6.875 15.5833C6.875 15.2076 7.01987 14.8473 7.27773 14.5816C7.53559 14.3159 7.88533 14.1667 8.25 14.1667H20.625C20.9897 14.1667 21.3394 14.3159 21.5973 14.5816C21.8551 14.8473 22 15.2076 22 15.5833C22 15.9591 21.8551 16.3194 21.5973 16.5851C21.3394 16.8507 20.9897 17 20.625 17H8.25C7.88533 17 7.53559 16.8507 7.27773 16.5851C7.01987 16.3194 6.875 15.9591 6.875 15.5833Z" fill="#1A1A1A"/>
</svg>
